<?xml version="1.0" encoding="UTF-8"?>
<svg version="1.1" xmlns="http://www.w3.org/2000/svg" width="584" height="584">
<path d="M0 0 C0.97088562 0.00215515 1.94177124 0.0043103 2.94207764 0.00653076 C17.28306653 0.05759152 31.27727486 0.46144879 45.375 3.3125 C46.37450684 3.50585938 47.37401367 3.69921875 48.40380859 3.8984375 C93.87227299 12.88534155 136.64600346 33.25840226 170.375 65.3125 C171.7644001 66.52822509 173.15981591 67.73712611 174.5625 68.9375 C181.41989472 74.93075148 187.40970128 81.37440502 193.1015625 88.484375 C194.55011102 90.28634945 196.02194922 92.07001872 197.5234375 93.828125 C209.02783027 107.36759086 218.15469136 122.61102876 226.375 138.3125 C226.71450684 138.94285156 227.05401367 139.57320312 227.40380859 140.22265625 C239.28598156 162.46410073 246.66484808 188.48394045 250.375 213.3125 C250.55611328 214.46314941 250.73722656 215.61379883 250.92382812 216.79931641 C252.58025015 228.3810074 252.77367349 239.87580684 252.75 251.5625 C252.74918427 253.08002365 252.74918427 253.08002365 252.74835205 254.62820435 C252.68746456 279.32587691 249.60445744 302.6362344 242.375 326.3125 C241.95009277 327.70879639 241.95009277 327.70879639 241.51660156 329.13330078 C230.73316495 363.77732504 212.3962223 395.98386248 187.375 422.3125 C186.15927491 423.7019001 184.95037389 425.09731591 183.75 426.5 C177.75674852 433.35739472 171.31309498 439.34720128 164.203125 445.0390625 C162.40115055 446.48761102 160.61748128 447.95944922 158.859375 449.4609375 C145.31990914 460.96533027 130.07647124 470.09219136 114.375 478.3125 C113.74464844 478.65200684 113.11429687 478.99151367 112.46484375 479.34130859 C90.22325214 491.22356016 64.20364772 498.60203745 39.375 502.3125 C38.22507568 502.49361328 37.07515137 502.67472656 35.89038086 502.86132812 C24.28752844 504.52151603 12.77049291 504.71010207 1.0625 504.6875 C0.04987091 504.68728851 -0.96275818 504.68707703 -2.006073 504.68685913 C-18.21936256 504.65312973 -33.71979021 503.67620683 -49.625 500.3125 C-50.5221875 500.13589844 -51.419375 499.95929688 -52.34375 499.77734375 C-95.90816383 491.1285263 -137.42273524 469.9156797 -169.625 439.3125 C-171.0144001 438.09677491 -172.40981591 436.88787389 -173.8125 435.6875 C-180.66989472 429.69424852 -186.65970128 423.25059498 -192.3515625 416.140625 C-193.80011102 414.33865055 -195.27194922 412.55498128 -196.7734375 410.796875 C-208.27783027 397.25740914 -217.40469136 382.01397124 -225.625 366.3125 C-225.96450684 365.68214844 -226.30401367 365.05179687 -226.65380859 364.40234375 C-238.51047906 342.20863569 -246.01785666 316.11185222 -249.625 291.3125 C-249.80683838 290.07967285 -249.98867676 288.8468457 -250.17602539 287.57666016 C-251.77574112 275.95111259 -251.98439688 264.40896231 -251.9375 252.6875 C-251.93534485 251.71661438 -251.9331897 250.74572876 -251.93096924 249.74542236 C-251.87990848 235.40443347 -251.47605121 221.41022514 -248.625 207.3125 C-248.33496094 205.81323975 -248.33496094 205.81323975 -248.0390625 204.28369141 C-239.05215845 158.81522701 -218.67909774 116.04149654 -186.625 82.3125 C-185.40927491 80.9230999 -184.20037389 79.52768409 -183 78.125 C-177.00674852 71.26760528 -170.56309498 65.27779872 -163.453125 59.5859375 C-161.65115055 58.13738898 -159.86748128 56.66555078 -158.109375 55.1640625 C-114.40867725 18.03187454 -56.79102576 -0.22721757 0 0 Z " fill="#FF7500" transform="translate(291.625,39.6875)"/>
<path d="M0 0 C3.63 0 7.26 0 11 0 C9.07859925 17.43568977 9.07859925 17.43568977 7.3671875 25.703125 C6.97282474 28.16998993 6.93809163 30.50597712 7 33 C8.36125 31.824375 8.36125 31.824375 9.75 30.625 C14.36986946 26.63511274 17.70739594 25.7073955 23.875 25.6875 C25.06867188 25.67074219 26.26234375 25.65398437 27.4921875 25.63671875 C33.26997231 26.23508622 37.0297351 28.48918313 40.75 32.875 C41.32234375 33.53242188 41.8946875 34.18984375 42.484375 34.8671875 C47.47746265 41.89354281 46.76179464 50.74190681 46 59 C44.40436626 66.80648658 39.89580591 72.76640417 34 78 C27.78595207 82.07515462 21.4448802 83.74313686 14 83 C8.34616113 81.67764726 4.85358448 79.43746091 1 75 C0.67 74.67 0.34 74.34 0 74 C-0.66 76.31 -1.32 78.62 -2 81 C-5.3 81 -8.6 81 -12 81 C-11.28956153 73.12647437 -10.2097145 65.35086631 -9.00390625 57.5390625 C-8.81030014 56.27210541 -8.61669403 55.00514832 -8.41722107 53.69979858 C-8.00944968 51.03204474 -7.60001785 48.36455339 -7.18920898 45.69726562 C-6.66809198 42.3136592 -6.14989769 38.92961399 -5.63281345 35.54538918 C-5.13256112 32.27228572 -4.63075165 28.99942211 -4.12890625 25.7265625 C-3.94550186 24.52931549 -3.76209747 23.33206848 -3.57313538 22.09854126 C-2.43716778 14.7225325 -1.24073051 7.35912871 0 0 Z " fill="#FFF9F7" transform="translate(365,246)"/>
<path d="M0 0 C0.6909375 -0.020625 1.381875 -0.04125 2.09375 -0.0625 C8.58232607 -0.11128629 13.17767994 1.40293212 18.125 5.8125 C22.73670333 11.102395 21.65364372 17.54161682 21.25 24.25 C20.68155956 29.74724307 19.70417655 35.1842725 18.75 40.625 C18.50806781 42.05451074 18.26717723 43.48419816 18.02734375 44.9140625 C17.44683041 48.36148534 16.85246481 51.80633678 16.25 55.25 C13.28 55.25 10.31 55.25 7.25 55.25 C6.755 52.28 6.755 52.28 6.25 49.25 C5.3425 50.03375 4.435 50.8175 3.5 51.625 C-1.27184052 55.746135 -4.75116985 56.56138892 -11.125 56.625 C-12.41148437 56.65335937 -13.69796875 56.68171875 -15.0234375 56.7109375 C-20.14259131 56.07775076 -23.19425311 53.96132158 -26.625 50.1875 C-28.68493776 44.80877361 -28.72591666 38.8333088 -26.6875 33.4375 C-26.048125 32.715625 -25.40875 31.99375 -24.75 31.25 C-24.30914062 30.74855469 -23.86828125 30.24710937 -23.4140625 29.73046875 C-16.69033787 22.99034479 -7.96295015 22.13738898 1.15869141 22.05224609 C4.52517207 22.0669898 7.88518558 22.14235783 11.25 22.25 C11.10831863 20.81208484 10.96148957 19.3746763 10.8125 17.9375 C10.73128906 17.13699219 10.65007812 16.33648437 10.56640625 15.51171875 C10.29734307 13.08912821 10.29734307 13.08912821 9.25 10.25 C4.33636002 8.38991309 -1.64400414 8.65482726 -6.625 10.0625 C-10.7832948 12.38625298 -12.17810439 14.77614326 -13.75 19.25 C-16.72 19.25 -19.69 19.25 -22.75 19.25 C-22.31303463 13.78793293 -21.25321584 10.49073496 -17.75 6.25 C-12.02402884 1.41096743 -7.50745432 0.05479894 0 0 Z " fill="#FFFAF8" transform="translate(175.75,271.75)"/>
<path d="M0 0 C5.07586701 3.0455202 9.45467213 7.4265164 11.34375 13.09375 C11.34375 18.37375 11.34375 23.65375 11.34375 29.09375 C-2.51625 29.09375 -16.37625 29.09375 -30.65625 29.09375 C-28.99457098 36.57897865 -28.99457098 36.57897865 -25.65625 43.09375 C-20.94735055 45.81042276 -17.05097268 46.85090406 -11.65625 46.09375 C-6.72022458 43.8321529 -4.12290459 42.02705919 -1.65625 37.09375 C1.97375 37.09375 5.60375 37.09375 9.34375 37.09375 C7.84206163 43.76792054 3.87214104 48.49464714 -1.5546875 52.4921875 C-8.96969885 56.49799823 -19.23926684 56.52434793 -27.2890625 54.3984375 C-33.08817986 51.77450227 -36.88367885 47.23728839 -39.46875 41.46875 C-42.57106304 32.10832273 -40.94375427 22.76225553 -36.65625 14.09375 C-29.26626729 1.13320281 -14.34594376 -4.89449846 0 0 Z " fill="#FFFAF7" transform="translate(455.65625,272.90625)"/>
<path d="M0 0 C5.07586701 3.0455202 9.45467213 7.4265164 11.34375 13.09375 C11.34375 18.37375 11.34375 23.65375 11.34375 29.09375 C-2.51625 29.09375 -16.37625 29.09375 -30.65625 29.09375 C-28.99457098 36.57897865 -28.99457098 36.57897865 -25.65625 43.09375 C-20.94735055 45.81042276 -17.05097268 46.85090406 -11.65625 46.09375 C-6.72022458 43.8321529 -4.12290459 42.02705919 -1.65625 37.09375 C1.97375 37.09375 5.60375 37.09375 9.34375 37.09375 C7.84206163 43.76792054 3.87214104 48.49464714 -1.5546875 52.4921875 C-8.96969885 56.49799823 -19.23926684 56.52434793 -27.2890625 54.3984375 C-33.08817986 51.77450227 -36.88367885 47.23728839 -39.46875 41.46875 C-42.57106304 32.10832273 -40.94375427 22.76225553 -36.65625 14.09375 C-29.26626729 1.13320281 -14.34594376 -4.89449846 0 0 Z " fill="#FFFAF7" transform="translate(337.65625,272.90625)"/>
<path d="M0 0 C5.14448002 2.61658898 7.90918729 6.96193687 9.6875 12.296875 C10.47707822 19.75231551 8.94648003 26.89734895 7.484375 34.1640625 C6.46537185 39.28081053 5.7889035 44.42817089 5.1171875 49.6015625 C4.6875 52.296875 4.6875 52.296875 3.6875 54.296875 C0.3875 54.296875 -2.9125 54.296875 -6.3125 54.296875 C-5.74794525 46.50601939 -4.67276757 38.88867537 -3.32885742 31.19995117 C-1.55146301 20.99877855 -1.55146301 20.99877855 -4.3125 11.296875 C-8.57601037 8.45453475 -12.30851378 8.67235254 -17.3125 9.296875 C-22.26241136 11.68016565 -24.61416395 14.58014075 -27.3125 19.296875 C-28.28282132 22.40018711 -28.87196188 25.53535915 -29.4375 28.734375 C-29.60217773 29.60803711 -29.76685547 30.48169922 -29.93652344 31.38183594 C-31.33738647 38.98533211 -32.42813349 46.61685004 -33.3125 54.296875 C-36.9425 54.296875 -40.5725 54.296875 -44.3125 54.296875 C-43.67719699 47.37670742 -42.79761302 40.55337631 -41.68359375 33.6953125 C-41.4526577 32.25159775 -41.4526577 32.25159775 -41.21705627 30.77871704 C-40.73077231 27.7426566 -40.2404582 24.70726361 -39.75 21.671875 C-39.41704959 19.59769927 -39.08436483 17.52348088 -38.75195312 15.44921875 C-37.94186954 10.39793956 -37.12817407 5.34725433 -36.3125 0.296875 C-33.0125 0.296875 -29.7125 0.296875 -26.3125 0.296875 C-25.9825 1.946875 -25.6525 3.596875 -25.3125 5.296875 C-24.82523438 4.86375 -24.33796875 4.430625 -23.8359375 3.984375 C-16.68254982 -1.63428587 -8.75755858 -2.66277119 0 0 Z " fill="#FFFAF7" transform="translate(133.3125,272.703125)"/>
<path d="M0 0 C1.37478516 0.01740234 1.37478516 0.01740234 2.77734375 0.03515625 C3.69644531 0.04417969 4.61554688 0.05320312 5.5625 0.0625 C6.27277344 0.07410156 6.98304688 0.08570313 7.71484375 0.09765625 C6.9839494 12.54209428 6.9839494 12.54209428 5.71484375 17.41015625 C4.67988631 21.66059215 4.24576302 25.93271169 3.90234375 30.28515625 C3.83724609 30.96296143 3.77214844 31.6407666 3.70507812 32.33911133 C3.38359981 37.08382849 4.16932474 40.09408339 6.71484375 44.09765625 C11.06154114 46.27100495 15.8849904 45.30863591 20.40234375 44.16015625 C25.99051537 40.68072863 28.0716238 35.82106905 29.56713867 29.48901367 C30.32293538 25.39715255 30.89911657 21.28181512 31.46484375 17.16015625 C31.77340648 15.02934048 32.08694739 12.89933461 32.40313721 10.76963806 C32.68463965 8.8568751 32.95350707 6.94226521 33.22167969 5.02758789 C33.71484375 2.09765625 33.71484375 2.09765625 34.71484375 0.09765625 C38.01484375 0.09765625 41.31484375 0.09765625 44.71484375 0.09765625 C43.89403516 8.39796786 42.58535573 16.6133641 41.27734375 24.84765625 C41.05775054 26.23825092 40.83834841 27.62887577 40.61914062 29.01953125 C40.29597558 31.06959535 39.9726856 33.11963843 39.64859009 35.16955566 C38.65211839 41.47608523 37.67973027 47.78622705 36.71484375 54.09765625 C33.41484375 54.09765625 30.11484375 54.09765625 26.71484375 54.09765625 C26.38484375 52.44765625 26.05484375 50.79765625 25.71484375 49.09765625 C24.60109375 50.02578125 24.60109375 50.02578125 23.46484375 50.97265625 C16.92362825 56.02723186 10.82744211 55.84288331 2.71484375 55.09765625 C-3.51165293 52.41382148 -5.37608766 47.91579343 -8.28515625 42.09765625 C-8.47787491 36.66459915 -8.06899441 31.50473849 -7.2265625 26.1328125 C-7.11795395 25.41403427 -7.0093454 24.69525604 -6.89744568 23.95469666 C-6.66910498 22.45267797 -6.43787976 20.95109512 -6.20385742 19.44995117 C-5.84496831 17.14287715 -5.49706119 14.83432899 -5.15039062 12.52539062 C-4.92642329 11.06109957 -4.70183667 9.59690307 -4.4765625 8.1328125 C-4.37235489 7.4412355 -4.26814728 6.74965851 -4.16078186 6.03712463 C-3.23122655 0.1380866 -3.23122655 0.1380866 0 0 Z " fill="#FFF9F7" transform="translate(250.28515625,272.90234375)"/>
<path d="M0 0 C4.05420177 2.92279663 6.22829699 6.15648401 7.03515625 11.04296875 C7.32048567 18.05214801 5.54101785 24.77965478 2 30.8125 C-2.6165011 35.0546902 -7.12886008 37.16197205 -13.4375 37.4375 C-18.05022241 37.23879811 -20.82029975 36.08048023 -24.3125 32.9375 C-27.77988798 27.70662948 -26.75059625 20.92709712 -26.3125 14.9375 C-24.9256255 8.66405986 -20.80046789 3.63384175 -15.5625 0.0625 C-10.12466883 -1.81982617 -5.4677313 -1.75380061 0 0 Z " fill="#FF7603" transform="translate(394.3125,282.0625)"/>
<path d="M0 0 C3.3 0 6.6 0 10 0 C9.85848172 2.0836309 9.71162064 4.16689938 9.5625 6.25 C9.48128906 7.41015625 9.40007812 8.5703125 9.31640625 9.765625 C9 13 9 13 8 17 C11.3 17 14.6 17 18 17 C17.67 19.97 17.34 22.94 17 26 C13.37 26 9.74 26 6 26 C5.81824219 27.43988281 5.63648438 28.87976563 5.44921875 30.36328125 C4.19790873 40.1755673 2.9091438 49.97739832 1.375 59.75 C1.25213623 60.54059814 1.12927246 61.33119629 1.00268555 62.14575195 C0.51386319 65.20030211 -0.01986588 68.05959763 -1 71 C-4.3 71 -7.6 71 -11 71 C-10.53953679 62.01302831 -9.30650479 53.33249227 -7.765625 44.48046875 C-6.69924837 38.34084511 -5.84369851 32.17388791 -5 26 C-7.97 26 -10.94 26 -14 26 C-14.125 19.25 -14.125 19.25 -13 17 C-9.7 17 -6.4 17 -3 17 C-2.87625 16.05125 -2.7525 15.1025 -2.625 14.125 C-1.95208604 9.37559276 -0.9652555 4.69757674 0 0 Z " fill="#FFFAF7" transform="translate(486,256)"/>
<path d="M0 0 C0.99386719 0.00902344 1.98773438 0.01804687 3.01171875 0.02734375 C4.15060547 0.04474609 4.15060547 0.04474609 5.3125 0.0625 C4.9825 3.3625 4.6525 6.6625 4.3125 10.0625 C3.44367188 10.14886719 2.57484375 10.23523438 1.6796875 10.32421875 C-7.67197753 11.38048019 -7.67197753 11.38048019 -14.6875 17.0625 C-17.84349843 23.15487841 -18.78269069 29.32342785 -19.8125 36.0625 C-19.98136719 37.11695313 -20.15023437 38.17140625 -20.32421875 39.2578125 C-21.16154941 44.51915006 -21.9529687 49.78586701 -22.6875 55.0625 C-26.3175 55.0625 -29.9475 55.0625 -33.6875 55.0625 C-33.05219699 48.14233242 -32.17261302 41.31900131 -31.05859375 34.4609375 C-30.8276577 33.01722275 -30.8276577 33.01722275 -30.59205627 31.54434204 C-30.10577231 28.5082816 -29.6154582 25.47288861 -29.125 22.4375 C-28.79204959 20.36332427 -28.45936483 18.28910588 -28.12695312 16.21484375 C-27.31686954 11.16356456 -26.50317407 6.11287933 -25.6875 1.0625 C-22.3875 1.0625 -19.0875 1.0625 -15.6875 1.0625 C-15.3575 2.7125 -15.0275 4.3625 -14.6875 6.0625 C-13.759375 5.258125 -12.83125 4.45375 -11.875 3.625 C-8.05766446 0.31664253 -4.97962968 -0.05858388 0 0 Z " fill="#FFF9F6" transform="translate(236.6875,271.9375)"/>
<path d="M0 0 C-0.95357655 6.27652624 -2.36059198 11.45904095 -7 16 C-12.05490962 19.01350381 -17.2063136 20.13495722 -23 19 C-26.125 16.9375 -26.125 16.9375 -28 14 C-28.23811129 9.55525584 -27.52651709 7.65814636 -24.75 4.1875 C-18.13175553 -0.67227371 -7.89589262 -0.30964285 0 0 Z " fill="#FF7807" transform="translate(186,301)"/>
<path d="M0 0 C2.58694104 1.34691972 4.69532607 2.75171548 6.515625 5.046875 C7.078125 7.234375 7.078125 7.234375 7.078125 14.234375 C-2.821875 14.234375 -12.721875 14.234375 -22.921875 14.234375 C-20.75493933 7.733568 -19.08181354 4.21422507 -13.109375 0.921875 C-8.63579191 -1.10780622 -4.72544265 -1.88249341 0 0 Z " fill="#FF7706" transform="translate(449.921875,280.765625)"/>
<path d="M0 0 C2.58694104 1.34691972 4.69532607 2.75171548 6.515625 5.046875 C7.078125 7.234375 7.078125 7.234375 7.078125 14.234375 C-2.821875 14.234375 -12.721875 14.234375 -22.921875 14.234375 C-20.75493933 7.733568 -19.08181354 4.21422507 -13.109375 0.921875 C-8.63579191 -1.10780622 -4.72544265 -1.88249341 0 0 Z " fill="#FF7706" transform="translate(331.921875,280.765625)"/>
</svg>
